<svg width="20" height="18" viewBox="0 0 20 18" fill="#01032D" xmlns="http://www.w3.org/2000/svg">
<path d="M1.5 17C1.08333 17 0.729167 16.8542 0.4375 16.5625C0.145833 16.2708 0 15.9167 0 15.5C0 15.0833 0.145833 14.7292 0.4375 14.4375C0.729167 14.1458 1.08333 14 1.5 14H2V3C2 2.45 2.19583 1.97917 2.5875 1.5875C2.97917 1.19583 3.45 1 4 1H18C18.2833 1 18.5208 1.09583 18.7125 1.2875C18.9042 1.47917 19 1.71667 19 2C19 2.28333 18.9042 2.52083 18.7125 2.7125C18.5208 2.90417 18.2833 3 18 3H4V14H8.5C8.91667 14 9.27083 14.1458 9.5625 14.4375C9.85417 14.7292 10 15.0833 10 15.5C10 15.9167 9.85417 16.2708 9.5625 16.5625C9.27083 16.8542 8.91667 17 8.5 17H1.5ZM13 17C12.7167 17 12.4792 16.9042 12.2875 16.7125C12.0958 16.5208 12 16.2833 12 16V6C12 5.71667 12.0958 5.47917 12.2875 5.2875C12.4792 5.09583 12.7167 5 13 5H19C19.2833 5 19.5208 5.09583 19.7125 5.2875C19.9042 5.47917 20 5.71667 20 6V16C20 16.2833 19.9042 16.5208 19.7125 16.7125C19.5208 16.9042 19.2833 17 19 17H13ZM14 14H18V7H14V14Z" fill="#01032D"/>
</svg>
