<svg width="22" height="18" viewBox="0 0 22 18" fill="#01032D" xmlns="http://www.w3.org/2000/svg">
<path d="M4.30153 14.9447C3.99873 14.8022 3.75827 14.5706 3.58015 14.25C3.40204 13.9294 3.31298 13.591 3.31298 13.2347V8.05153L0.534351 6.66221C0.356234 6.57315 0.222646 6.45399 0.133588 6.30473C0.0445293 6.15547 0 5.98964 0 5.80725C0 5.62486 0.0445293 5.45903 0.133588 5.30977C0.222646 5.16051 0.356234 5.04135 0.534351 4.95229L9.51145 0.46374C9.64646 0.392494 9.78522 0.339059 9.92771 0.303435C10.0702 0.267812 10.2164 0.25 10.3664 0.25C10.5164 0.25 10.6626 0.267812 10.8051 0.303435C10.9476 0.339059 11.0864 0.392494 11.2214 0.46374L21.4008 5.54008C21.5611 5.62913 21.6858 5.74696 21.7748 5.89355C21.8639 6.04032 21.9084 6.19858 21.9084 6.36832V13.1813C21.9084 13.4307 21.8104 13.6533 21.6145 13.8492C21.4186 14.0452 21.1915 14.1431 20.9332 14.1431C20.6749 14.1431 20.4523 14.0452 20.2653 13.8492C20.0782 13.6533 19.9847 13.4307 19.9847 13.1813V6.76908L17.4198 8.05153V13.2347C17.4198 13.591 17.3352 13.9249 17.166 14.2366C16.9968 14.5483 16.7519 14.7844 16.4313 14.9447L11.2214 17.563C11.0789 17.6342 10.9383 17.6832 10.7995 17.7099C10.6606 17.7366 10.5181 17.75 10.372 17.75C10.2258 17.75 10.0814 17.7366 9.93893 17.7099C9.79644 17.6832 9.65394 17.6342 9.51145 17.563L4.30153 14.9447ZM10.3664 9.41412L17.6069 5.80725L10.3664 2.20038L3.12595 5.80725L10.3664 9.41412ZM10.3664 15.7996L15.4962 13.2614V9.04008L11.3015 11.124C11.1412 11.2131 10.9839 11.2754 10.8294 11.3111C10.6752 11.3467 10.5208 11.3645 10.3664 11.3645C10.1883 11.3645 10.0235 11.3467 9.87214 11.3111C9.72074 11.2754 9.57379 11.2131 9.4313 11.124L5.23664 9.04008V13.2614L10.3664 15.7996Z" fill="#01032D"/>
</svg>
