<svg width="39" height="32" viewBox="0 0 39 32" fill="#FF6D00" xmlns="http://www.w3.org/2000/svg">
<path d="M7.61985 26.5305C7.08346 26.2781 6.65751 25.8679 6.34198 25.3C6.02646 24.7321 5.8687 24.1326 5.8687 23.5015V14.3198L0.946565 11.8588C0.631043 11.701 0.394402 11.4899 0.236641 11.2255C0.0788804 10.9611 0 10.6674 0 10.3443C0 10.0212 0.0788804 9.72743 0.236641 9.46302C0.394402 9.19862 0.631043 8.98753 0.946565 8.82977L16.8489 0.878626C17.088 0.752417 17.3338 0.657761 17.5862 0.594656C17.8386 0.531552 18.0977 0.5 18.3634 0.5C18.629 0.5 18.8881 0.531552 19.1405 0.594656C19.3929 0.657761 19.6387 0.752417 19.8779 0.878626L37.9099 9.87099C38.1939 10.0288 38.4148 10.2375 38.5725 10.4971C38.7303 10.7571 38.8092 11.0375 38.8092 11.3382V23.4069C38.8092 23.8486 38.6356 24.243 38.2886 24.5901C37.9415 24.9372 37.5392 25.1107 37.0817 25.1107C36.6242 25.1107 36.2298 24.9372 35.8985 24.5901C35.5672 24.243 35.4015 23.8486 35.4015 23.4069V12.0481L30.858 14.3198V23.5015C30.858 24.1326 30.7081 24.7242 30.4084 25.2763C30.1087 25.8285 29.6748 26.2466 29.1069 26.5305L19.8779 31.1687C19.6254 31.2949 19.3763 31.3817 19.1306 31.429C18.8844 31.4763 18.632 31.5 18.3733 31.5C18.1143 31.5 17.8585 31.4763 17.6061 31.429C17.3537 31.3817 17.1013 31.2949 16.8489 31.1687L7.61985 26.5305ZM18.3634 16.7336L31.1893 10.3443L18.3634 3.95496L5.5374 10.3443L18.3634 16.7336ZM18.3634 28.045L27.4504 23.5489V16.071L20.0198 19.7626C19.7359 19.9204 19.4571 20.0308 19.1836 20.0939C18.9103 20.157 18.6369 20.1885 18.3634 20.1885C18.0478 20.1885 17.756 20.157 17.4878 20.0939C17.2196 20.0308 16.9593 19.9204 16.7069 19.7626L9.27634 16.071V23.5489L18.3634 28.045Z" fill="#FF6D00"/>
</svg>
